HIERARCHY
ROOT Hips
{
	OFFSET 0.000000 0.000000 0.000000
	CHANNELS 6 Xposition Yposition Zposition Xrotation Yrotation Zrotation
	JOINT LeftUpLeg_virtual
	{
		OFFSET 0.000000 0.000000 0.000000
		CHANNELS 3 Xrotation Yrotation Zrotation
		JOINT LeftUpLeg
		{
			OFFSET 11.394100 -6.187798 -0.413800
			CHANNELS 3 Xrotation Yrotation Zrotation
			JOINT LeftLeg
			{
				OFFSET 0.430247 -32.302673 3.732800
				CHANNELS 3 Xrotation Yrotation Zrotation
				JOINT LeftFoot
				{
					OFFSET -0.430247 -48.264931 -6.423300
					CHANNELS 3 Xrotation Yrotation Zrotation
					JOINT LeftToeBase
					{
						OFFSET 4.230900 -16.068199 23.438400
						CHANNELS 3 Xrotation Yrotation Zrotation
						JOINT LeftToe_End
						{
							OFFSET 4.510700 0.695400 19.974600
							CHANNELS 3 Xrotation Yrotation Zrotation
							End Site
							{
								OFFSET 0 0 0
							}
						}
					}
				}
			}
		}
	}
	JOINT RightUpLeg_virtual
	{
		OFFSET 0.000000 0.000000 0.000000
		CHANNELS 3 Xrotation Yrotation Zrotation
		JOINT RightUpLeg
		{
			OFFSET -11.333700 -6.187798 -0.413800
			CHANNELS 3 Xrotation Yrotation Zrotation
			JOINT RightLeg
			{
				OFFSET -0.430392 -32.302628 3.733000
				CHANNELS 3 Xrotation Yrotation Zrotation
				JOINT RightFoot
				{
					OFFSET 0.430392 -48.264973 -6.423500
					CHANNELS 3 Xrotation Yrotation Zrotation
					JOINT RightToeBase
					{
						OFFSET -4.230900 -16.068199 23.438400
						CHANNELS 3 Xrotation Yrotation Zrotation
						JOINT RightToe_End
						{
							OFFSET -4.510700 0.695400 19.974600
							CHANNELS 3 Xrotation Yrotation Zrotation
							End Site
							{
								OFFSET 0 0 0
							}
						}
					}
				}
			}
		}
	}
	JOINT Spine_virtual
	{
		OFFSET 0.000000 0.000000 0.000000
		CHANNELS 3 Xrotation Yrotation Zrotation
		JOINT Spine
		{
			OFFSET -0.002400 12.777504 0.315300
			CHANNELS 3 Xrotation Yrotation Zrotation
			JOINT Spine1
			{
				OFFSET -0.002067 5.816869 0.032633
				CHANNELS 3 Xrotation Yrotation Zrotation
				JOINT Spine1_split
				{
					OFFSET -0.002067 5.816869 0.032633
					CHANNELS 3 Xrotation Yrotation Zrotation
					JOINT Spine2
					{
						OFFSET -0.002067 5.816869 0.032633
						CHANNELS 3 Xrotation Yrotation Zrotation
						JOINT Neck_virtual
						{
							OFFSET 0.000000 0.000000 0.000000
							CHANNELS 3 Xrotation Yrotation Zrotation
							JOINT Neck
							{
								OFFSET -0.003700 21.199493 -0.826900
								CHANNELS 3 Xrotation Yrotation Zrotation
								JOINT Head
								{
									OFFSET 0.000000 20.442200 4.834800
									CHANNELS 3 Xrotation Yrotation Zrotation
									JOINT HeadTop_End
									{
										OFFSET 0.000000 34.668396 4.968400
										CHANNELS 3 Xrotation Yrotation Zrotation
										End Site
										{
											OFFSET 0 0 0
										}
									}
								}
							}
						}
						JOINT LeftShoulder_virtual
						{
							OFFSET 0.000000 0.000000 0.000000
							CHANNELS 3 Xrotation Yrotation Zrotation
							JOINT LeftShoulder
							{
								OFFSET 3.288150 8.794197 -1.372250
								CHANNELS 3 Xrotation Yrotation Zrotation
								JOINT LeftShoulder_split
								{
									OFFSET 3.288150 8.794197 -1.372250
									CHANNELS 3 Xrotation Yrotation Zrotation
									JOINT LeftArm
									{
										OFFSET 11.953299 -2.279007 -0.146200
										CHANNELS 3 Xrotation Yrotation Zrotation
										JOINT LeftForeArm
										{
											OFFSET 18.448900 0.000000 0.000000
											CHANNELS 3 Xrotation Yrotation Zrotation
											JOINT LeftHand
											{
												OFFSET 29.527798 0.000000 0.000000
												CHANNELS 3 Xrotation Yrotation Zrotation
												End Site
												{
													OFFSET 0 0 0
												}
											}
										}
									}
								}
							}
						}
						JOINT RightShoulder_virtual
						{
							OFFSET 0.000000 0.000000 0.000000
							CHANNELS 3 Xrotation Yrotation Zrotation
							JOINT RightShoulder
							{
								OFFSET -3.249400 8.794197 -1.372250
								CHANNELS 3 Xrotation Yrotation Zrotation
								JOINT RightShoulder_split
								{
									OFFSET -3.249400 8.794197 -1.372250
									CHANNELS 3 Xrotation Yrotation Zrotation
									JOINT RightArm
									{
										OFFSET -11.953299 -2.279007 -0.146200
										CHANNELS 3 Xrotation Yrotation Zrotation
										JOINT RightForeArm
										{
											OFFSET -18.448900 0.000000 0.000000
											CHANNELS 3 Xrotation Yrotation Zrotation
											JOINT RightHand
											{
												OFFSET -29.527802 0.000000 0.000000
												CHANNELS 3 Xrotation Yrotation Zrotation
												End Site
												{
													OFFSET 0 0 0
												}
											}
										}
									}
								}
							}
						}
					}
				}
			}
		}
	}
}
MOTION
Frames: 11
Frame Time: 0.03333333
-3.868125 86.488838 -5.462898 0.000000 0.000000 0.000000 9.440742 -49.005115 4.098433 -24.025633 51.004605 32.821777 51.610057 -4.013262 -2.914687 -29.383457 21.805907 -2.554415 6.044786 -9.883272 -7.307103 0.000000 0.000000 0.000000 12.152696 -45.971203 5.351648 -34.063034 9.192877 -11.566554 28.598883 3.845934 -5.200787 0.462084 -10.379582 38.791547 5.758474 10.551934 -29.835475 0.000000 0.000000 0.000000 12.994385 -44.323311 3.729719 4.586821 -22.692993 10.111044 -3.037388 -6.451817 4.332333 -0.134348 -1.079292 0.208661 0.000000 0.000000 0.000000 -7.384796 -4.904232 5.074316 -31.986657 58.041582 14.140732 42.218478 40.076866 -9.606261 0.000000 0.000000 0.000000 -1.296037 -7.126840 5.664027 10.406172 -15.117130 29.487344 -10.350156 0.664938 -9.305449 -19.033673 5.620343 4.038845 3.392968 -49.570815 -6.679496 0.000000 0.000000 0.000000 -2.541457 -6.067424 5.607593 3.309460 -20.850962 16.619684 -6.063772 5.939693 3.039126 -48.538487 13.007306 -33.132353 -18.610876 52.661783 31.217055 0.000000 0.000000 0.000000 
-4.848222 88.937592 -3.829361 0.000000 0.000000 0.000000 10.344888 -46.876268 3.849979 -18.729994 54.698679 27.824215 44.574648 -2.485160 -2.472413 -32.795109 21.001978 1.374520 3.540379 -10.574232 -2.637667 0.000000 0.000000 0.000000 11.620256 -43.782312 4.293197 -28.171006 8.022120 -10.936403 29.491541 0.812296 -4.884446 -4.260885 -17.000334 38.170147 4.002850 10.503964 -26.140379 0.000000 0.000000 0.000000 14.571783 -41.720223 3.481163 2.161821 -21.798837 8.596913 -4.953259 -6.977066 4.483343 0.026668 -0.380977 0.160246 0.000000 0.000000 0.000000 -9.406051 -5.817066 4.925146 -32.474377 57.465913 17.256307 45.448202 41.278037 -6.849309 0.000000 0.000000 0.000000 -2.614319 -7.831497 6.453884 10.560362 -14.014740 34.145212 -10.040141 -1.226130 -8.767780 -21.759654 -3.038353 12.370402 5.374447 -44.781773 -3.923014 0.000000 0.000000 0.000000 -4.098505 -7.053331 5.451386 1.977166 -17.086808 14.093481 -3.263691 3.627126 1.747539 -56.085391 11.937906 -36.528207 -31.197459 53.984101 42.254344 0.000000 0.000000 0.000000 
-5.587029 90.633820 -1.843647 0.000000 0.000000 0.000000 11.102261 -44.007612 3.199246 -12.827377 54.712219 22.340164 38.952671 -1.493714 -1.200290 -34.032749 20.188852 3.744875 1.507325 -10.993044 -0.893801 0.000000 0.000000 0.000000 10.654681 -41.640907 3.047648 -24.123991 8.010013 -9.615184 32.381681 -3.053770 -4.542960 -6.715159 -23.966963 34.879167 0.819303 9.687993 -18.405608 0.000000 0.000000 0.000000 16.405544 -38.762287 3.328393 -1.200792 -20.222312 7.322373 -6.740592 -7.648600 4.157570 0.153448 0.473219 -0.115921 0.000000 0.000000 0.000000 -10.855613 -6.722602 4.197210 -32.117803 56.384424 19.709440 47.290290 42.907245 -4.273687 0.000000 0.000000 0.000000 -3.504443 -8.749230 6.920693 10.381818 -12.447957 39.338956 -9.377215 -1.541549 -7.924349 -27.170755 -10.920391 18.651150 10.541975 -40.998555 1.366243 0.000000 0.000000 0.000000 -5.422703 -8.255937 4.715149 0.870414 -13.900162 9.524913 -0.132561 1.031488 0.628613 -63.306428 11.360151 -38.978298 -43.578270 54.164131 53.089233 0.000000 0.000000 0.000000 
-6.169321 91.100433 0.445957 0.000000 0.000000 0.000000 11.532317 -40.095512 2.108936 -7.810158 51.592445 18.265492 35.082266 -1.795848 0.742417 -34.161239 19.834977 3.857969 2.516606 -10.791458 -1.775970 0.000000 0.000000 0.000000 9.963786 -39.143148 1.943575 -21.754576 8.644032 -7.965009 36.261471 -6.735711 -4.052615 -4.735438 -29.358550 31.259460 -7.160514 7.838038 -7.806837 0.000000 0.000000 0.000000 17.867724 -35.267187 2.852277 -4.973701 -18.267305 6.211424 -8.270883 -8.491844 3.361143 0.142703 1.326288 -0.388042 0.000000 0.000000 0.000000 -11.699702 -7.597607 2.937228 -29.925658 55.294534 20.512530 47.755952 44.647645 -1.549291 0.000000 0.000000 0.000000 -3.883401 -9.877463 6.935992 10.014606 -10.908138 44.734413 -8.909917 0.013216 -6.635997 -35.362410 -17.273280 22.302492 17.474960 -39.236599 7.974983 0.000000 0.000000 0.000000 -6.556551 -9.584200 3.468578 0.180041 -11.909567 2.707366 2.508157 -1.614716 0.297120 -69.252914 10.816880 -40.080349 -54.222710 53.778659 62.347749 0.000000 0.000000 0.000000 
-6.470869 90.048363 3.318279 0.000000 0.000000 0.000000 11.567438 -34.757798 0.637429 -4.749227 47.416546 16.839124 32.219949 -3.509318 2.521785 -34.517167 18.876669 1.368166 2.637443 -10.221542 -2.906717 0.000000 0.000000 0.000000 9.507342 -35.902698 0.935077 -21.970162 9.444775 -6.479850 41.775807 -8.662874 -3.394326 3.876104 -31.379709 30.611364 -17.477363 4.140231 2.710544 0.000000 0.000000 0.000000 18.076896 -30.817981 1.844589 -8.497447 -16.223596 4.968423 -9.372170 -9.457135 2.207852 0.142273 1.936472 -0.606559 0.000000 0.000000 0.000000 -11.868154 -8.372869 1.442920 -25.450671 54.236435 19.573258 46.357795 46.315929 1.750651 0.000000 0.000000 0.000000 -3.980242 -11.031331 6.485771 9.426189 -9.623205 49.353164 -8.479341 1.766668 -5.015021 -44.178521 -21.634247 23.158281 25.463487 -39.937694 15.352476 0.000000 0.000000 0.000000 -7.524738 -10.886929 1.838549 -0.379726 -11.393162 -6.385716 3.575185 -3.629704 1.162783 -73.627902 10.403824 -39.722919 -61.605998 53.503081 68.586670 0.000000 0.000000 0.000000 
-6.537180 87.830246 6.401871 0.000000 0.000000 0.000000 11.242312 -27.783154 -1.036867 -4.323196 43.544614 18.481976 31.367695 -6.224776 3.778511 -34.897953 16.919156 -3.102310 -0.808066 -9.589026 -2.873923 0.000000 0.000000 0.000000 9.270106 -30.817923 -0.117934 -24.850405 9.676114 -5.339896 48.949835 -8.170379 -2.698479 16.785950 -28.930403 32.467837 -27.337235 -0.274034 9.968555 0.000000 0.000000 0.000000 17.266686 -24.873370 0.522124 -11.100801 -14.252229 3.528298 -10.041278 -10.337408 0.904313 0.235066 2.285259 -0.648559 0.000000 0.000000 0.000000 -11.592907 -8.891964 -0.102025 -17.935493 52.895936 16.761520 42.707189 46.948118 6.091058 0.000000 0.000000 0.000000 -3.907129 -11.952044 5.529543 9.071173 -9.402511 52.162428 -7.904580 3.071649 -3.278964 -51.278926 -23.888732 22.001228 33.476888 -43.250735 22.767107 0.000000 0.000000 0.000000 -8.294364 -11.833255 0.201746 -1.225499 -12.146745 -17.244329 3.500329 -4.085698 1.625431 -76.421211 10.595991 -37.561847 -64.317002 53.874493 70.391076 0.000000 0.000000 0.000000 
-6.692595 85.065384 9.315144 0.000000 0.000000 0.000000 10.838683 -19.295552 -2.569106 -8.552829 39.835248 23.500895 34.623240 -9.980020 4.896344 -33.249883 14.130559 -9.529209 -3.930139 -8.942361 -2.786370 0.000000 0.000000 0.000000 9.552603 -22.562326 -1.375858 -29.495851 8.237784 -4.636798 57.228721 -5.718052 -2.429738 27.169801 -23.126681 33.597745 -38.348275 -3.145395 11.280839 0.000000 0.000000 0.000000 15.876401 -17.161670 -0.941481 -12.289373 -12.347627 1.971069 -10.247712 -10.839551 -0.345549 0.311830 1.934732 -0.342963 0.000000 0.000000 0.000000 -11.051060 -8.951717 -1.478155 -7.731378 50.854395 12.918252 36.714538 45.805147 11.227886 0.000000 0.000000 0.000000 -3.807903 -12.395230 4.123378 9.200313 -10.722921 52.859452 -6.660208 3.207678 -1.580117 -55.452144 -23.820860 19.918526 40.410439 -49.139731 29.441841 0.000000 0.000000 0.000000 -8.645268 -12.087475 -1.110577 -2.647717 -13.480679 -29.238831 3.187175 -3.287102 2.303649 -77.734526 12.033214 -33.799116 -61.638748 55.037965 66.990605 0.000000 0.000000 0.000000 
-6.873825 82.547546 12.166416 0.000000 0.000000 0.000000 10.693928 -9.828333 -3.927622 -16.851994 35.747366 30.350663 41.340311 -13.107585 6.158564 -30.527964 10.639334 -14.993462 -4.456946 -8.475168 -2.358864 0.000000 0.000000 0.000000 10.616048 -11.571198 -2.884524 -34.756271 4.433056 -4.681995 66.446874 -2.174119 -2.797749 31.346375 -16.207373 33.057542 -50.222839 -2.308525 6.484373 0.000000 0.000000 0.000000 14.255296 -7.944903 -2.289406 -11.841127 -10.348817 0.562046 -9.923547 -10.738696 -1.305274 0.427570 0.969283 0.006424 0.000000 0.000000 0.000000 -10.267055 -8.486708 -2.467405 3.834633 47.582759 9.553228 28.844179 41.959013 15.955595 0.000000 0.000000 0.000000 -3.685676 -12.194072 2.499527 9.836893 -13.642362 51.409314 -4.363205 3.263965 -0.561648 -56.764534 -21.995103 18.084785 44.660223 -56.850038 33.936345 0.000000 0.000000 0.000000 -8.476582 -11.559976 -1.852832 -4.494970 -14.575827 -40.990588 2.675802 -1.918799 2.335526 -78.112311 14.945507 -28.850504 -53.790202 56.568050 58.504614 0.000000 0.000000 0.000000 
-7.086553 81.111778 14.145763 0.000000 0.000000 0.000000 10.909129 0.509176 -5.372777 -26.882359 30.384404 36.156412 48.536465 -14.331962 7.483528 -28.471741 7.686621 -16.941051 -1.812244 -8.209483 -1.962715 0.000000 0.000000 0.000000 11.524119 1.115247 -4.927232 -40.219917 -1.836401 -6.285483 76.028092 1.713068 -3.788341 30.073791 -9.251637 31.961419 -58.111065 2.676881 -1.390995 0.000000 0.000000 0.000000 13.113487 2.518626 -3.664799 -9.814817 -8.090470 -0.321787 -9.117813 -9.993869 -1.817770 0.475067 -0.317832 0.284596 0.000000 0.000000 0.000000 -9.298633 -7.538011 -3.038103 14.785550 43.181972 8.172315 20.162978 34.916371 18.658665 0.000000 0.000000 0.000000 -3.360579 -11.410517 0.978006 10.868487 -17.973416 48.440279 -0.812973 4.157788 0.379829 -55.681751 -18.475802 17.423461 43.204013 -64.758690 33.253439 0.000000 0.000000 0.000000 -7.718473 -10.321066 -1.928063 -6.072392 -15.083522 -51.022046 2.179921 -0.932391 1.667276 -78.144966 18.649391 -23.523059 -43.361538 58.119295 47.613775 0.000000 0.000000 0.000000 
-7.325616 81.174377 15.438625 0.000000 0.000000 0.000000 11.936342 12.141996 -7.090021 -37.116573 24.185843 39.180291 53.493102 -14.176498 8.568256 -27.103593 5.647320 -16.301348 2.783985 -8.072447 -1.947422 0.000000 0.000000 0.000000 12.021896 14.032566 -7.303873 -46.325977 -9.431839 -9.854996 84.266899 4.734919 -4.959086 24.953326 -4.067563 30.745987 -57.794240 9.488705 -10.059095 0.000000 0.000000 0.000000 12.802042 13.451705 -5.273759 -6.726718 -5.488690 -0.453848 -7.856732 -8.710375 -1.822928 0.325967 -1.741949 0.422871 0.000000 0.000000 0.000000 -7.872287 -6.275744 -3.129182 23.306439 38.299774 9.647533 11.467942 25.952561 18.052065 0.000000 0.000000 0.000000 -2.740270 -10.167761 -0.154530 11.932289 -22.830454 44.682930 3.923738 5.865721 0.958919 -52.563831 -13.757149 17.885948 31.081432 -69.869475 22.211888 0.000000 0.000000 0.000000 -6.432060 -8.634052 -1.524657 -6.806213 -15.067454 -58.242990 1.663605 -0.416295 1.086853 -78.197162 22.059884 -18.873201 -33.173232 59.859081 37.070421 0.000000 0.000000 0.000000 
-7.519335 82.417526 16.147081 0.000000 0.000000 0.000000 14.156555 24.754093 -9.558046 -46.592774 18.255240 39.446870 55.048982 -13.657804 9.335878 -24.129137 4.084495 -15.723159 6.368500 -8.031992 -2.097907 0.000000 0.000000 0.000000 13.079156 26.057742 -9.784909 -52.105649 -16.247779 -14.672353 88.496972 6.409241 -5.780792 16.525556 -2.374008 28.682659 -49.701876 14.973979 -18.992938 0.000000 0.000000 0.000000 13.769771 24.279311 -7.500779 -3.229493 -2.605235 0.220702 -6.191957 -7.181502 -1.328517 0.099214 -2.787532 0.252827 0.000000 0.000000 0.000000 -5.893343 -4.993255 -2.725142 28.290237 33.247592 13.870267 3.530238 17.136470 14.357539 0.000000 0.000000 0.000000 -1.759099 -8.702170 -0.731796 12.662206 -26.827330 40.331321 8.208592 8.252399 0.063626 -47.182486 -8.905735 18.052530 12.038331 -69.399708 4.370708 0.000000 0.000000 0.000000 -4.735958 -6.842396 -0.800284 -6.087302 -14.646041 -61.684422 1.365887 0.009648 -0.467832 -78.931490 23.871221 -15.590035 -24.760252 61.454258 28.294708 0.000000 0.000000 0.000000 
